# xmcd
#
# Track frame offsets:
# 150
# 17788
# 29939
# 49732
# 72529
# 88018
# 102523
# 133252
# 166397
# 189285
# 208694
# 226515
# 243759
#
# Disc length: 3574 seconds
#
# Revision: 0
# Processed by: cddbd v1.5.2PL0 Copyright (c) Steve Scherf et al.
# Submitted via: Audion 3.0.2 (http://www.panic.com/audion/)
#
DISCID=b40df40d
DTITLE=Various Artist - Blues In Britain 2009
DYEAR=1900
DGENRE=
TTITLE0=Alvin Youngblppd Hart - Motivational Speaker
TTITLE1=Mike Sanchez - I'm Shakin'
TTITLE2=Sherrie Williams and The WiseGuys - Gotta Go Thru Hell
TTITLE3=Derrin Nauendorf - Skin Of The Earth
TTITLE4=James Hunter - Hand It Over
TTITLE5=Lightnin' Willie and The Poorboys - Look What Love Can Do
TTITLE6=Jon Cleary - Mo Hippa
TTITLE7=Sherman Robertson band - Long Way From Home
TTITLE8=Kyla Brox - Gone
TTITLE9=Hamilton Loomis - Working Real Hard
TTITLE10=Harper - You Can't Hide
TTITLE11=Little Jenny and The Blue Jeans - I Ain't No Leftover
TTITLE12=Earl Thomas - See It My Way
EXTD=
EXTT0=
EXTT1=
EXTT2=
EXTT3=
EXTT4=
EXTT5=
EXTT6=
EXTT7=
EXTT8=
EXTT9=
EXTT10=
EXTT11=
EXTT12=
PLAYORDER=
